<?xml version="1.0" encoding="UTF-8" ?>
<!DOCTYPE svg PUBLIC "-//W3C//DTD SVG 1.1//EN" "http://www.w3.org/Graphics/SVG/1.1/DTD/svg11.dtd">
<svg width="1280pt" height="512pt" viewBox="0 0 1280 512" version="1.1" xmlns="http://www.w3.org/2000/svg">
<g id="#ffffffff">
</g>
<g id="#ed6a01ff">
<path fill="#ed6a01" opacity="1.00" d=" M 237.63 0.00 L 261.28 0.00 C 275.89 2.01 290.53 4.32 304.44 9.40 C 277.97 10.33 251.30 13.08 225.95 21.12 C 188.79 32.01 154.41 52.62 127.71 80.71 C 96.13 114.08 76.26 158.26 72.32 204.04 C 68.26 248.13 78.62 292.89 98.95 332.02 C 111.42 355.43 126.40 377.92 146.24 395.75 C 148.88 398.07 151.53 400.38 154.19 402.68 C 167.94 395.67 182.89 390.88 198.26 389.22 C 219.24 386.78 240.44 389.67 260.83 394.70 C 283.35 400.39 304.96 409.02 326.57 417.41 C 334.22 420.44 342.47 422.75 348.95 428.06 C 351.69 430.06 352.82 434.11 351.13 437.10 C 347.08 441.19 340.89 441.46 335.53 442.24 C 314.06 443.48 292.74 439.77 271.59 436.61 C 267.06 436.14 262.49 436.10 257.94 436.21 C 255.04 436.26 251.95 436.81 249.71 438.80 C 248.61 442.02 249.32 445.80 251.93 448.11 C 261.52 457.72 275.10 462.34 288.41 463.51 C 302.69 464.51 317.30 463.01 330.70 457.77 C 349.16 450.49 366.70 441.04 383.52 430.54 C 396.19 422.85 407.05 412.67 418.94 403.90 C 425.30 399.27 431.17 393.54 438.79 391.02 C 443.03 389.75 449.15 390.10 450.92 394.95 C 452.99 401.63 450.19 408.59 447.70 414.77 C 440.43 430.22 431.50 445.20 419.10 457.10 C 408.84 467.93 396.39 476.35 383.39 483.52 C 350.17 502.88 311.38 510.33 273.37 512.00 L 251.62 512.00 C 216.00 510.24 180.05 503.73 147.65 488.33 C 109.79 470.50 75.99 443.75 50.96 410.13 C 18.82 367.90 1.93 315.17 0.00 262.38 L 0.00 234.78 C 1.73 225.08 2.40 215.22 4.45 205.58 C 15.50 147.65 45.66 93.07 90.51 54.52 C 115.37 32.87 145.59 17.76 177.43 9.49 C 197.07 4.17 217.31 0.93 237.63 0.00 Z" />
<path fill="#ed6a01" opacity="1.00" d=" M 170.07 58.18 C 202.89 34.66 242.84 22.01 283.00 19.92 C 315.81 17.30 348.71 24.98 378.39 38.73 C 396.67 47.50 413.94 58.50 429.16 71.94 C 435.46 76.92 440.63 83.09 446.01 89.00 C 455.32 99.86 463.75 111.45 471.72 123.32 C 475.48 129.35 479.56 135.25 482.24 141.87 C 467.34 131.66 454.07 119.31 440.15 107.84 C 417.35 89.61 392.27 73.68 364.43 64.41 C 337.77 55.28 309.03 52.52 281.06 55.59 C 255.86 58.12 231.33 66.58 209.73 79.77 C 175.78 100.93 149.26 132.71 131.52 168.34 C 114.53 201.80 104.40 238.59 100.77 275.90 C 100.04 286.34 99.57 296.79 99.41 307.26 C 90.23 281.23 85.94 253.56 85.90 226.01 C 86.28 222.21 86.45 218.40 86.49 214.59 C 89.09 168.01 106.85 121.96 138.02 87.00 C 147.86 76.52 158.18 66.34 170.07 58.18 Z" />
<path fill="#ed6a01" opacity="1.00" d=" M 1192.33 168.36 C 1197.40 153.39 1211.48 142.05 1227.05 139.76 C 1235.26 139.09 1243.93 139.09 1251.59 142.54 C 1257.78 145.43 1263.07 149.98 1267.61 155.04 C 1268.20 150.54 1268.38 146.00 1268.21 141.46 C 1271.74 141.34 1275.27 141.31 1278.82 141.33 C 1280.32 149.52 1278.56 157.78 1279.26 166.00 C 1279.75 179.66 1279.45 193.33 1279.50 207.00 C 1279.68 211.82 1278.96 216.60 1278.64 221.40 C 1275.18 221.40 1271.72 221.38 1268.27 221.37 C 1268.40 216.97 1268.13 212.57 1267.64 208.20 C 1261.18 215.52 1252.26 220.83 1242.60 222.47 C 1233.77 224.29 1224.45 223.03 1216.10 219.78 C 1202.74 214.22 1192.47 201.46 1190.66 187.00 C 1190.18 180.77 1190.09 174.30 1192.33 168.36 M 1230.41 149.63 C 1215.12 151.11 1202.08 164.56 1201.45 179.96 C 1200.60 190.37 1206.17 200.40 1214.06 206.86 C 1227.80 217.40 1249.03 215.49 1260.87 202.92 C 1272.72 189.90 1270.82 167.01 1256.65 156.38 C 1249.36 150.41 1239.61 148.54 1230.41 149.63 Z" />
<path fill="#ed6a01" opacity="1.00" d=" M 595.75 141.40 C 599.36 141.34 602.98 141.31 606.61 141.33 C 606.76 152.43 606.44 163.53 606.75 174.62 C 614.41 169.11 621.14 162.44 628.48 156.53 C 634.59 151.69 640.03 145.97 646.45 141.57 C 651.29 140.94 656.19 141.44 661.05 141.47 C 647.12 153.67 632.67 165.27 618.94 177.70 C 626.26 185.84 634.74 192.82 642.56 200.45 C 649.67 207.50 657.52 213.80 664.24 221.26 C 659.50 221.37 654.75 221.64 650.03 221.24 C 647.14 219.93 645.24 217.19 642.84 215.19 C 635.54 208.81 629.01 201.60 621.62 195.31 C 618.05 192.24 615.06 188.54 611.35 185.65 C 608.57 183.97 606.62 187.55 606.69 189.93 C 606.52 200.43 606.74 210.92 606.57 221.42 C 602.93 221.40 599.30 221.34 595.67 221.36 C 595.77 194.71 595.62 168.06 595.75 141.40 Z" />
<path fill="#ed6a01" opacity="1.00" d=" M 716.80 140.68 C 717.83 141.77 718.93 142.84 719.68 144.17 C 729.78 164.45 739.72 184.83 749.74 205.16 C 752.09 210.58 755.48 215.61 757.01 221.35 C 753.70 221.35 750.37 221.61 747.09 221.20 C 745.27 220.18 744.64 218.07 743.67 216.37 C 735.08 198.76 726.47 181.16 717.70 163.64 C 715.90 166.22 714.37 168.97 713.04 171.82 C 707.91 182.70 702.62 193.50 697.36 204.31 C 694.74 209.68 692.55 215.30 689.36 220.37 C 686.10 222.58 681.62 220.91 677.87 221.33 C 678.83 218.32 680.15 215.45 681.59 212.64 C 690.58 194.19 699.54 175.73 708.44 157.24 C 711.20 151.71 713.68 146.03 716.80 140.68 Z" />
<path fill="#ed6a01" opacity="1.00" d=" M 783.50 141.33 C 787.13 141.31 790.76 141.32 794.40 141.31 C 794.58 160.93 794.16 180.55 794.59 200.16 C 815.70 180.67 836.16 160.47 857.44 141.18 C 858.17 145.08 858.37 149.05 858.21 153.01 C 858.24 169.00 858.23 185.00 858.23 201.00 C 858.15 207.80 858.56 214.62 857.94 221.41 C 854.39 221.37 850.85 221.36 847.31 221.39 C 847.20 208.26 847.27 195.13 847.22 182.00 C 847.13 175.83 847.71 169.60 846.49 163.50 C 832.33 175.98 819.09 189.46 805.11 202.15 C 797.89 208.66 791.52 216.11 783.73 221.96 C 783.21 195.09 783.58 168.21 783.50 141.33 Z" />
<path fill="#ed6a01" opacity="1.00" d=" M 952.26 141.31 C 955.93 141.33 959.61 141.33 963.30 141.40 C 963.35 164.60 963.30 187.80 963.33 211.00 C 963.38 214.47 963.31 217.95 962.90 221.40 C 959.35 221.37 955.80 221.38 952.26 221.42 C 951.97 208.47 952.81 195.47 951.78 182.57 C 935.33 182.61 918.89 182.56 902.44 182.60 C 902.32 195.53 902.39 208.46 902.36 221.39 C 898.73 221.41 895.11 221.40 891.50 221.38 C 891.39 194.71 891.48 168.04 891.45 141.38 C 895.09 141.30 898.74 141.30 902.39 141.38 C 902.38 151.80 902.35 162.21 902.38 172.63 C 905.23 173.03 908.10 173.35 910.99 173.31 C 924.60 173.32 938.20 173.29 951.81 173.31 C 952.77 162.68 951.98 151.97 952.26 141.31 Z" />
<path fill="#ed6a01" opacity="1.00" d=" M 996.50 141.39 C 1000.15 141.33 1003.81 141.31 1007.47 141.35 C 1007.56 160.95 1007.30 180.56 1007.63 200.16 C 1017.23 191.60 1026.39 182.56 1035.70 173.69 C 1047.69 163.01 1058.58 151.08 1071.09 140.99 C 1071.50 167.76 1071.10 194.55 1071.28 221.32 C 1067.62 221.39 1063.96 221.37 1060.31 221.38 C 1060.15 206.59 1060.16 191.79 1060.21 177.00 C 1060.34 172.45 1060.34 167.89 1059.56 163.39 C 1051.18 170.73 1043.40 178.71 1035.06 186.09 C 1024.27 197.00 1012.68 207.06 1001.84 217.91 C 1000.22 219.29 998.38 220.35 996.63 221.52 C 996.25 194.82 996.57 168.10 996.50 141.39 Z" />
<path fill="#ed6a01" opacity="1.00" d=" M 1104.42 141.34 C 1108.09 141.34 1111.75 141.32 1115.43 141.35 C 1115.48 152.35 1115.23 163.36 1115.58 174.36 C 1129.12 164.20 1141.19 152.19 1154.58 141.86 C 1159.51 140.65 1164.79 141.65 1169.87 141.37 C 1161.18 148.84 1152.45 156.28 1143.76 163.75 C 1138.32 168.43 1132.58 172.77 1127.50 177.84 C 1135.64 185.93 1144.22 193.56 1152.47 201.53 C 1159.06 208.25 1166.61 214.03 1172.68 221.25 C 1167.85 221.28 1162.96 221.82 1158.18 221.11 C 1151.82 216.49 1146.68 210.39 1140.90 205.09 C 1133.47 198.26 1126.33 191.11 1118.78 184.40 C 1117.49 185.77 1115.24 186.76 1115.49 188.96 C 1115.27 199.76 1115.52 210.57 1115.38 221.37 C 1111.74 221.38 1108.11 221.24 1104.48 221.38 C 1104.39 194.70 1104.46 168.02 1104.42 141.34 Z" />
<path fill="#ed6a01" opacity="1.00" d=" M 344.03 190.21 C 346.84 190.25 349.66 190.21 352.46 190.52 C 364.84 192.23 377.42 194.42 388.58 200.33 C 409.49 210.62 425.67 229.55 433.63 251.36 C 441.71 272.53 441.88 296.64 433.85 317.86 C 427.90 334.29 417.56 348.93 405.05 361.04 C 396.13 370.11 385.75 377.78 374.38 383.47 C 367.83 386.24 360.03 389.12 353.16 385.73 C 347.10 383.15 344.53 374.66 348.12 369.17 C 349.63 366.83 352.58 366.60 355.10 366.57 C 354.17 368.49 353.18 370.37 352.14 372.23 C 354.07 374.16 356.93 376.55 359.75 374.81 C 363.57 373.24 364.18 368.65 364.26 365.03 C 364.13 359.16 362.96 353.37 361.36 347.74 C 358.19 336.71 354.26 325.77 348.04 316.06 C 342.18 306.52 334.87 297.89 326.49 290.49 C 315.27 280.58 301.54 273.77 291.38 262.62 C 282.67 253.95 277.20 242.18 275.88 229.99 C 275.73 227.29 275.92 223.83 278.77 222.55 C 280.91 221.93 283.61 222.01 285.02 224.02 C 289.12 228.86 292.24 235.68 298.98 237.27 C 303.44 237.75 308.15 236.41 311.74 233.72 C 316.39 230.23 314.56 223.68 316.80 218.90 C 318.74 218.66 320.68 218.43 322.63 218.18 C 322.62 216.27 322.59 214.36 322.53 212.46 C 325.13 212.46 328.10 213.13 330.33 211.36 C 331.87 208.78 331.98 205.68 332.92 202.87 C 336.64 201.84 340.53 201.86 344.33 201.26 C 346.87 197.96 344.79 193.76 344.03 190.21 Z" />
<path fill="#ed6a01" opacity="1.00" d=" M 403.34 381.17 C 408.01 380.15 413.90 379.65 417.48 383.47 C 420.04 385.96 420.12 390.22 418.17 393.09 C 414.09 399.91 407.32 404.39 401.35 409.39 C 393.63 415.44 385.53 421.00 377.23 426.23 C 373.01 428.72 368.31 431.87 363.16 430.47 C 358.69 428.73 356.06 424.39 352.45 421.45 C 350.27 419.30 346.10 417.37 347.67 413.63 C 350.55 410.14 354.47 407.73 357.98 404.93 C 364.46 400.29 371.01 395.68 378.08 391.95 C 386.16 387.64 394.32 383.17 403.34 381.17 Z" />
</g>
<g id="#0eb8b7ff">
<path fill="#0eb8b7" opacity="1.00" d=" M 263.65 72.67 C 271.79 69.76 280.54 70.09 289.04 70.18 C 296.01 70.29 302.86 72.06 309.27 74.74 C 327.01 82.16 342.31 94.97 353.52 110.52 C 357.77 116.19 359.64 123.29 359.47 130.33 C 353.38 131.91 347.16 130.34 341.00 130.55 C 331.93 130.58 322.16 131.20 314.47 136.54 C 308.48 140.91 304.31 147.17 300.04 153.10 C 298.38 155.20 296.21 158.00 293.16 157.23 C 287.71 154.69 286.90 148.03 283.09 143.96 C 279.60 140.36 273.45 140.62 269.84 143.90 C 263.44 149.42 261.78 158.24 256.72 164.77 C 250.44 172.92 242.11 179.34 233.11 184.25 C 225.35 188.09 216.18 190.94 207.66 187.91 C 210.08 185.60 212.77 183.34 213.97 180.10 C 217.06 172.11 216.26 163.37 216.96 155.00 C 218.51 140.27 217.36 125.14 221.84 110.84 C 224.79 100.18 232.01 91.37 240.06 84.07 C 246.74 78.21 255.42 75.54 263.65 72.67 Z" />
<path fill="#0eb8b7" opacity="1.00" d=" M 199.12 185.23 C 212.58 196.62 225.85 208.24 239.17 219.81 C 249.76 228.24 258.25 238.90 268.04 248.15 C 268.72 259.40 269.49 271.31 275.74 281.10 C 279.23 287.11 285.29 291.39 287.74 298.04 C 286.27 299.11 284.74 300.10 283.25 301.14 C 285.09 301.32 286.94 301.47 288.80 301.60 C 288.78 306.67 288.29 311.80 286.49 316.58 C 285.01 320.42 284.00 324.42 283.54 328.52 C 286.16 329.20 288.80 329.77 291.46 330.30 C 291.55 333.05 290.99 335.75 290.27 338.39 C 293.43 338.72 296.62 338.80 299.78 338.46 C 298.11 340.54 297.31 343.10 296.63 345.65 C 298.67 346.21 300.93 346.23 302.84 347.24 C 306.05 350.77 305.91 356.21 309.23 359.67 C 311.64 361.63 315.05 361.54 317.92 360.81 C 324.38 359.51 329.56 355.17 334.97 351.71 C 342.87 360.70 345.41 373.36 344.30 385.02 C 343.39 393.95 338.15 401.45 333.18 408.60 C 327.98 407.81 323.33 405.29 318.48 403.42 C 298.31 395.68 278.00 388.06 256.92 383.19 C 253.73 382.35 250.37 382.01 247.35 380.64 C 245.55 379.05 244.53 376.79 243.07 374.92 C 239.94 370.46 235.61 366.82 233.21 361.87 C 233.73 356.65 236.80 352.07 240.18 348.21 C 247.77 340.39 258.32 336.73 267.25 330.83 C 267.27 326.86 265.91 322.87 266.94 318.94 C 267.90 315.21 267.82 311.34 267.39 307.55 C 266.79 304.05 269.47 301.07 269.43 297.62 C 266.72 293.97 262.48 291.88 259.56 288.43 C 256.76 284.95 256.48 280.32 255.64 276.12 C 255.09 272.63 253.62 269.38 252.96 265.93 C 253.00 262.61 253.92 259.02 251.90 256.05 C 246.90 248.59 238.06 244.87 229.49 243.40 C 218.56 241.18 207.40 243.60 196.99 247.02 C 187.98 250.07 179.35 254.84 172.93 261.98 C 161.36 274.90 156.14 293.81 161.40 310.59 C 162.86 316.10 166.58 320.55 170.27 324.73 C 177.95 333.35 187.16 340.50 197.11 346.31 C 197.35 350.89 194.31 355.06 191.60 358.57 C 186.78 364.37 182.51 370.64 179.25 377.44 C 167.03 366.37 157.41 352.36 152.12 336.70 C 146.66 319.73 145.72 301.67 146.68 283.98 C 149.07 260.97 157.91 237.98 174.29 221.29 C 177.12 218.17 179.98 215.07 183.23 212.38 C 186.29 209.80 189.72 207.36 191.39 203.58 C 194.26 197.59 196.03 191.13 199.12 185.23 Z" />
<path fill="#0eb8b7" opacity="1.00" d=" M 624.50 271.42 C 636.93 265.14 651.45 263.26 665.11 265.73 C 679.05 267.94 691.86 275.23 701.89 285.02 C 697.93 288.68 693.90 292.26 689.85 295.82 C 688.59 296.84 686.62 298.54 685.18 296.83 C 677.87 290.31 669.00 285.16 659.17 283.88 C 651.37 282.91 643.12 283.45 635.99 287.01 C 626.38 291.60 618.19 300.19 615.88 310.79 C 614.12 320.53 615.52 331.25 621.74 339.22 C 631.26 352.20 649.40 356.24 664.48 352.45 C 673.16 350.39 680.25 344.67 686.89 339.00 C 691.63 343.62 696.39 348.22 701.04 352.94 C 689.03 364.57 673.05 372.75 656.05 372.60 C 641.15 373.50 625.64 369.70 613.93 360.15 C 601.57 350.81 593.93 335.57 594.17 320.05 C 593.68 309.13 596.72 298.09 603.10 289.19 C 608.18 281.19 616.10 275.52 624.50 271.42 Z" />
<path fill="#0eb8b7" opacity="1.00" d=" M 725.51 267.35 C 745.88 267.23 766.27 267.27 786.65 267.33 C 786.72 273.77 786.67 280.22 786.61 286.68 C 780.76 286.66 774.90 286.41 769.05 286.70 C 767.32 286.66 766.21 288.34 766.57 289.95 C 766.60 316.58 766.48 343.21 766.64 369.84 C 759.56 370.36 752.44 370.42 745.37 369.78 C 745.42 343.51 745.35 317.23 745.40 290.96 C 745.27 289.58 745.76 287.32 743.79 287.07 C 737.78 286.05 731.60 286.87 725.53 286.63 C 725.52 280.20 725.53 273.77 725.51 267.35 Z" />
<path fill="#0eb8b7" opacity="1.00" d=" M 817.55 267.26 C 824.51 267.28 831.48 267.27 838.44 267.27 C 838.63 289.26 838.28 311.26 838.62 333.26 C 850.89 314.86 862.29 295.90 874.29 277.33 C 876.43 274.09 878.47 270.78 880.30 267.34 C 886.29 267.25 892.29 267.30 898.29 267.29 C 898.33 301.48 898.32 335.66 898.30 369.84 C 891.35 370.44 884.37 370.07 877.41 370.22 C 877.17 348.79 877.42 327.36 877.29 305.93 C 863.61 326.42 850.45 347.26 836.98 367.89 C 836.25 368.96 835.39 370.08 833.96 370.05 C 828.47 370.49 822.96 370.13 817.47 370.11 C 817.62 335.83 817.43 301.54 817.55 267.26 Z" />
<path fill="#0eb8b7" opacity="1.00" d=" M 944.44 267.28 C 951.23 267.30 958.02 267.26 964.82 267.26 C 973.58 290.80 981.58 314.62 990.47 338.11 C 992.87 333.10 994.66 327.83 996.44 322.57 C 1003.03 304.12 1009.96 285.80 1016.34 267.28 C 1023.21 267.29 1030.08 267.25 1036.96 267.32 C 1043.21 301.51 1049.30 335.72 1055.61 369.89 C 1048.79 370.33 1041.93 370.45 1035.13 369.84 C 1031.18 348.51 1027.46 327.12 1023.21 305.84 C 1015.12 327.11 1007.60 348.59 999.97 370.03 C 993.73 370.32 987.45 370.40 981.22 369.90 C 973.35 348.61 966.08 327.10 957.96 305.90 C 953.58 327.08 950.09 348.43 946.06 369.68 C 939.18 370.38 932.24 370.39 925.36 369.78 C 931.62 335.60 938.15 301.46 944.44 267.28 Z" />
<path fill="#0eb8b7" opacity="1.00" d=" M 1083.83 267.37 C 1091.78 267.20 1099.73 267.26 1107.69 267.37 C 1111.67 276.91 1116.04 286.27 1120.29 295.70 C 1123.04 301.61 1125.45 307.69 1128.66 313.39 C 1129.90 317.10 1131.47 320.69 1133.44 324.08 C 1140.83 305.23 1147.62 286.13 1154.99 267.27 C 1162.05 267.34 1169.12 267.15 1176.20 267.37 C 1173.85 274.69 1170.61 281.68 1167.85 288.85 C 1162.29 302.89 1156.57 316.87 1151.03 330.92 C 1147.12 340.65 1143.72 350.82 1137.28 359.25 C 1131.29 367.45 1121.21 372.78 1110.99 372.46 C 1100.66 372.61 1091.02 367.23 1083.74 360.25 C 1082.57 359.21 1081.19 357.15 1082.96 356.00 C 1086.83 352.11 1090.95 348.48 1095.03 344.82 C 1099.81 349.06 1105.15 353.89 1112.01 353.59 C 1116.57 353.48 1119.83 350.01 1122.91 347.09 C 1113.33 327.40 1103.54 307.80 1093.88 288.15 C 1090.66 281.16 1086.74 274.51 1083.83 267.37 Z" />
<path fill="#0eb8b7" opacity="1.00" d=" M 1216.01 267.26 C 1223.14 267.33 1230.28 267.21 1237.42 267.33 C 1244.47 284.64 1251.78 301.84 1258.93 319.11 C 1265.99 335.66 1272.41 352.49 1280.00 368.81 L 1280.00 370.24 C 1272.44 370.01 1264.87 370.47 1257.33 369.88 C 1247.10 344.94 1237.17 319.88 1226.77 295.02 C 1216.24 319.89 1206.13 344.94 1195.69 369.84 C 1188.33 370.43 1180.92 370.35 1173.56 369.90 C 1178.33 356.56 1184.31 343.70 1189.61 330.57 C 1198.30 309.42 1207.21 288.37 1216.01 267.26 Z" />
</g>
</svg>
